<?xml version="1.0" encoding="UTF-8" standalone="no"?>
<!DOCTYPE svg PUBLIC "-//W3C//DTD SVG 1.1//EN"
 "http://www.w3.org/Graphics/SVG/1.1/DTD/svg11.dtd">
<!-- Generated by graphviz version 13.1.0 (20250701.0955)
 -->
<!-- Title: src/driver_ws2812b.h Pages: 1 -->
<svg width="402pt" height="232pt"
 viewBox="0.00 0.00 402.00 232.00" xmlns="http://www.w3.org/2000/svg" xmlns:xlink="http://www.w3.org/1999/xlink">
<g id="graph0" class="graph" transform="scale(1 1) rotate(0) translate(4 228)">
<title>src/driver_ws2812b.h</title>
<!-- Node1 -->
<g id="Node000001" class="node">
<title>Node1</title>
<g id="a_Node000001"><a xlink:title="driver ws2812b header file">
<polygon fill="#999999" stroke="#666666" points="325.5,-224 216.5,-224 216.5,-204 325.5,-204 325.5,-224"/>
<text xml:space="preserve" text-anchor="middle" x="271" y="-210.5" font-family="Helvetica,sans-Serif" font-size="10.00">src/driver_ws2812b.h</text>
</a>
</g>
</g>
<!-- Node2 -->
<g id="Node000002" class="node">
<title>Node2</title>
<g id="a_Node000002"><a xlink:href="driver__ws2812b__interface_8h.html" target="_top" xlink:title="driver ws2812b interface header file">
<polygon fill="white" stroke="#666666" points="266.38,-168 141.62,-168 141.62,-136 266.38,-136 266.38,-168"/>
<text xml:space="preserve" text-anchor="start" x="149.62" y="-154.5" font-family="Helvetica,sans-Serif" font-size="10.00">interface/driver_ws2812b</text>
<text xml:space="preserve" text-anchor="middle" x="204" y="-142.5" font-family="Helvetica,sans-Serif" font-size="10.00">_interface.h</text>
</a>
</g>
</g>
<!-- Node1&#45;&gt;Node2 -->
<g id="edge1_Node000001_Node000002" class="edge">
<title>Node1&#45;&gt;Node2</title>
<g id="a_edge1_Node000001_Node000002"><a xlink:title=" ">
<path fill="none" stroke="#63b8ff" d="M251.99,-195.98C242.29,-187.29 230.59,-176.81 221.17,-168.37"/>
<polygon fill="#63b8ff" stroke="#63b8ff" points="249.62,-198.55 259.4,-202.62 254.29,-193.34 249.62,-198.55"/>
</a>
</g>
</g>
<!-- Node8 -->
<g id="Node000008" class="node">
<title>Node8</title>
<g id="a_Node000008"><a xlink:href="driver__ws2812b_8c.html" target="_top" xlink:title="driver ws2812b source file">
<polygon fill="white" stroke="#666666" points="393.5,-162 284.5,-162 284.5,-142 393.5,-142 393.5,-162"/>
<text xml:space="preserve" text-anchor="middle" x="339" y="-148.5" font-family="Helvetica,sans-Serif" font-size="10.00">src/driver_ws2812b.c</text>
</a>
</g>
</g>
<!-- Node1&#45;&gt;Node8 -->
<g id="edge7_Node000001_Node000008" class="edge">
<title>Node1&#45;&gt;Node8</title>
<g id="a_edge7_Node000001_Node000008"><a xlink:title=" ">
<path fill="none" stroke="#63b8ff" d="M290.01,-196.22C302.53,-185.18 318.44,-171.14 328.67,-162.11"/>
<polygon fill="#63b8ff" stroke="#63b8ff" points="287.94,-193.38 282.76,-202.62 292.57,-198.63 287.94,-193.38"/>
</a>
</g>
</g>
<!-- Node3 -->
<g id="Node000003" class="node">
<title>Node3</title>
<g id="a_Node000003"><a xlink:href="driver__ws2812b__basic_8h.html" target="_top" xlink:title="driver ws2812b basic header file">
<polygon fill="white" stroke="#666666" points="124,-100 0,-100 0,-68 124,-68 124,-100"/>
<text xml:space="preserve" text-anchor="start" x="8" y="-86.5" font-family="Helvetica,sans-Serif" font-size="10.00">example/driver_ws2812b</text>
<text xml:space="preserve" text-anchor="middle" x="62" y="-74.5" font-family="Helvetica,sans-Serif" font-size="10.00">_basic.h</text>
</a>
</g>
</g>
<!-- Node2&#45;&gt;Node3 -->
<g id="edge2_Node000002_Node000003" class="edge">
<title>Node2&#45;&gt;Node3</title>
<g id="a_edge2_Node000002_Node000003"><a xlink:title=" ">
<path fill="none" stroke="#63b8ff" d="M160.41,-130.74C139.37,-120.96 114.54,-109.42 95.08,-100.38"/>
<polygon fill="#63b8ff" stroke="#63b8ff" points="158.79,-133.85 169.33,-134.89 161.74,-127.5 158.79,-133.85"/>
</a>
</g>
</g>
<!-- Node5 -->
<g id="Node000005" class="node">
<title>Node5</title>
<g id="a_Node000005"><a xlink:href="driver__ws2812b__interface__template_8c.html" target="_top" xlink:title="driver ws2812b interface template source file">
<polygon fill="white" stroke="#666666" points="266.38,-100 141.62,-100 141.62,-68 266.38,-68 266.38,-100"/>
<text xml:space="preserve" text-anchor="start" x="149.62" y="-86.5" font-family="Helvetica,sans-Serif" font-size="10.00">interface/driver_ws2812b</text>
<text xml:space="preserve" text-anchor="middle" x="204" y="-74.5" font-family="Helvetica,sans-Serif" font-size="10.00">_interface_template.c</text>
</a>
</g>
</g>
<!-- Node2&#45;&gt;Node5 -->
<g id="edge4_Node000002_Node000005" class="edge">
<title>Node2&#45;&gt;Node5</title>
<g id="a_edge4_Node000002_Node000005"><a xlink:title=" ">
<path fill="none" stroke="#63b8ff" d="M204,-124.31C204,-116.12 204,-107.38 204,-100.22"/>
<polygon fill="#63b8ff" stroke="#63b8ff" points="200.5,-124.18 204,-134.18 207.5,-124.18 200.5,-124.18"/>
</a>
</g>
</g>
<!-- Node6 -->
<g id="Node000006" class="node">
<title>Node6</title>
<g id="a_Node000006"><a xlink:href="driver__ws2812b__write__test_8h.html" target="_top" xlink:title="driver ws2812b write test header file">
<polygon fill="white" stroke="#666666" points="387.88,-100 284.12,-100 284.12,-68 387.88,-68 387.88,-100"/>
<text xml:space="preserve" text-anchor="start" x="292.12" y="-86.5" font-family="Helvetica,sans-Serif" font-size="10.00">test/driver_ws2812b</text>
<text xml:space="preserve" text-anchor="middle" x="336" y="-74.5" font-family="Helvetica,sans-Serif" font-size="10.00">_write_test.h</text>
</a>
</g>
</g>
<!-- Node2&#45;&gt;Node6 -->
<g id="edge5_Node000002_Node000006" class="edge">
<title>Node2&#45;&gt;Node6</title>
<g id="a_edge5_Node000002_Node000006"><a xlink:title=" ">
<path fill="none" stroke="#63b8ff" d="M245.05,-130.47C264.5,-120.75 287.32,-109.34 305.25,-100.38"/>
<polygon fill="#63b8ff" stroke="#63b8ff" points="243.68,-127.25 236.3,-134.85 246.81,-133.51 243.68,-127.25"/>
</a>
</g>
</g>
<!-- Node4 -->
<g id="Node000004" class="node">
<title>Node4</title>
<g id="a_Node000004"><a xlink:href="driver__ws2812b__basic_8c.html" target="_top" xlink:title="driver ws2812b basic source file">
<polygon fill="white" stroke="#666666" points="124,-32 0,-32 0,0 124,0 124,-32"/>
<text xml:space="preserve" text-anchor="start" x="8" y="-18.5" font-family="Helvetica,sans-Serif" font-size="10.00">example/driver_ws2812b</text>
<text xml:space="preserve" text-anchor="middle" x="62" y="-6.5" font-family="Helvetica,sans-Serif" font-size="10.00">_basic.c</text>
</a>
</g>
</g>
<!-- Node3&#45;&gt;Node4 -->
<g id="edge3_Node000003_Node000004" class="edge">
<title>Node3&#45;&gt;Node4</title>
<g id="a_edge3_Node000003_Node000004"><a xlink:title=" ">
<path fill="none" stroke="#63b8ff" d="M62,-56.31C62,-48.12 62,-39.38 62,-32.22"/>
<polygon fill="#63b8ff" stroke="#63b8ff" points="58.5,-56.18 62,-66.18 65.5,-56.18 58.5,-56.18"/>
</a>
</g>
</g>
<!-- Node7 -->
<g id="Node000007" class="node">
<title>Node7</title>
<g id="a_Node000007"><a xlink:href="driver__ws2812b__write__test_8c.html" target="_top" xlink:title="driver ws2812b write test source file">
<polygon fill="white" stroke="#666666" points="387.88,-32 284.12,-32 284.12,0 387.88,0 387.88,-32"/>
<text xml:space="preserve" text-anchor="start" x="292.12" y="-18.5" font-family="Helvetica,sans-Serif" font-size="10.00">test/driver_ws2812b</text>
<text xml:space="preserve" text-anchor="middle" x="336" y="-6.5" font-family="Helvetica,sans-Serif" font-size="10.00">_write_test.c</text>
</a>
</g>
</g>
<!-- Node6&#45;&gt;Node7 -->
<g id="edge6_Node000006_Node000007" class="edge">
<title>Node6&#45;&gt;Node7</title>
<g id="a_edge6_Node000006_Node000007"><a xlink:title=" ">
<path fill="none" stroke="#63b8ff" d="M336,-56.31C336,-48.12 336,-39.38 336,-32.22"/>
<polygon fill="#63b8ff" stroke="#63b8ff" points="332.5,-56.18 336,-66.18 339.5,-56.18 332.5,-56.18"/>
</a>
</g>
</g>
</g>
</svg>
