<?xml version="1.0" encoding="UTF-8" standalone="no"?>
<!DOCTYPE svg PUBLIC "-//W3C//DTD SVG 1.1//EN"
 "http://www.w3.org/Graphics/SVG/1.1/DTD/svg11.dtd">
<!-- Generated by graphviz version 13.1.0 (20250701.0955)
 -->
<!-- Title: ws2812b driver function Pages: 1 -->
<svg width="286pt" height="240pt"
 viewBox="0.00 0.00 286.00 240.00" xmlns="http://www.w3.org/2000/svg" xmlns:xlink="http://www.w3.org/1999/xlink">
<g id="graph0" class="graph" transform="scale(1 1) rotate(0) translate(4 236)">
<title>ws2812b driver function</title>
<!-- Node3 -->
<g id="Node000003" class="node">
<title>Node3</title>
<g id="a_Node000003"><a xlink:href="group__ws2812b__base__driver.html" target="_top" xlink:title="ws2812b base driver modules">
<polygon fill="white" stroke="#666666" points="269.75,-232 163.75,-232 163.75,-200 269.75,-200 269.75,-232"/>
<text xml:space="preserve" text-anchor="start" x="171.75" y="-218.5" font-family="Helvetica,sans-Serif" font-size="10.00">ws2812b base driver</text>
<text xml:space="preserve" text-anchor="middle" x="216.75" y="-206.5" font-family="Helvetica,sans-Serif" font-size="10.00"> function</text>
</a>
</g>
</g>
<!-- Node1 -->
<g id="Node000001" class="node">
<title>Node1</title>
<g id="a_Node000001"><a xlink:title="ws2812b driver modules">
<polygon fill="#999999" stroke="#666666" points="119.5,-126 0,-126 0,-106 119.5,-106 119.5,-126"/>
<text xml:space="preserve" text-anchor="middle" x="59.75" y="-112.5" font-family="Helvetica,sans-Serif" font-size="10.00">ws2812b driver function</text>
</a>
</g>
</g>
<!-- Node1&#45;&gt;Node3 -->
<g id="edge2" class="edge">
<title>Node1&#45;&gt;Node3</title>
<path fill="none" stroke="black" d="M80.02,-133.9C98.39,-150.29 127.34,-174.45 155.5,-191 160.67,-194.04 166.29,-196.9 171.94,-199.51"/>
<polygon fill="black" stroke="black" points="82.55,-131.47 72.79,-127.34 77.85,-136.65 82.55,-131.47"/>
</g>
<!-- Node5 -->
<g id="Node000005" class="node">
<title>Node5</title>
<g id="a_Node000005"><a xlink:href="group__ws2812b__example__driver.html" target="_top" xlink:title="ws2812b example driver modules">
<polygon fill="white" stroke="#666666" points="277.62,-182 155.88,-182 155.88,-150 277.62,-150 277.62,-182"/>
<text xml:space="preserve" text-anchor="start" x="163.88" y="-168.5" font-family="Helvetica,sans-Serif" font-size="10.00">ws2812b example driver</text>
<text xml:space="preserve" text-anchor="middle" x="216.75" y="-156.5" font-family="Helvetica,sans-Serif" font-size="10.00"> function</text>
</a>
</g>
</g>
<!-- Node1&#45;&gt;Node5 -->
<g id="edge4" class="edge">
<title>Node1&#45;&gt;Node5</title>
<path fill="none" stroke="black" d="M104.17,-130.01C122.97,-136.07 145.11,-143.21 164.69,-149.53"/>
<polygon fill="black" stroke="black" points="105.28,-126.69 94.68,-126.95 103.13,-133.35 105.28,-126.69"/>
</g>
<!-- Node4 -->
<g id="Node000004" class="node">
<title>Node4</title>
<g id="a_Node000004"><a xlink:href="group__ws2812b__interface__driver.html" target="_top" xlink:title="ws2812b interface driver modules">
<polygon fill="white" stroke="#666666" points="278,-132 155.5,-132 155.5,-100 278,-100 278,-132"/>
<text xml:space="preserve" text-anchor="start" x="163.5" y="-118.5" font-family="Helvetica,sans-Serif" font-size="10.00">ws2812b interface driver</text>
<text xml:space="preserve" text-anchor="middle" x="216.75" y="-106.5" font-family="Helvetica,sans-Serif" font-size="10.00"> function</text>
</a>
</g>
</g>
<!-- Node1&#45;&gt;Node4 -->
<g id="edge3" class="edge">
<title>Node1&#45;&gt;Node4</title>
<path fill="none" stroke="black" d="M131.03,-116C139.06,-116 147.19,-116 155.07,-116"/>
<polygon fill="black" stroke="black" points="131.3,-112.5 121.3,-116 131.3,-119.5 131.3,-112.5"/>
</g>
<!-- Node2 -->
<g id="Node000002" class="node">
<title>Node2</title>
<g id="a_Node000002"><a xlink:href="group__ws2812b__link__driver.html" target="_top" xlink:title="ws2812b link driver modules">
<polygon fill="white" stroke="#666666" points="266.75,-82 166.75,-82 166.75,-50 266.75,-50 266.75,-82"/>
<text xml:space="preserve" text-anchor="start" x="174.75" y="-68.5" font-family="Helvetica,sans-Serif" font-size="10.00">ws2812b link driver</text>
<text xml:space="preserve" text-anchor="middle" x="216.75" y="-56.5" font-family="Helvetica,sans-Serif" font-size="10.00"> function</text>
</a>
</g>
</g>
<!-- Node1&#45;&gt;Node2 -->
<g id="edge1" class="edge">
<title>Node1&#45;&gt;Node2</title>
<path fill="none" stroke="black" d="M104.19,-101.99C123.57,-95.74 146.49,-88.34 166.5,-81.89"/>
<polygon fill="black" stroke="black" points="103.13,-98.65 94.68,-105.05 105.28,-105.31 103.13,-98.65"/>
</g>
<!-- Node6 -->
<g id="Node000006" class="node">
<title>Node6</title>
<g id="a_Node000006"><a xlink:href="group__ws2812b__test__driver.html" target="_top" xlink:title="ws2812b test driver modules">
<polygon fill="white" stroke="#666666" points="267.5,-32 166,-32 166,0 267.5,0 267.5,-32"/>
<text xml:space="preserve" text-anchor="start" x="174" y="-18.5" font-family="Helvetica,sans-Serif" font-size="10.00">ws2812b test driver</text>
<text xml:space="preserve" text-anchor="middle" x="216.75" y="-6.5" font-family="Helvetica,sans-Serif" font-size="10.00"> function</text>
</a>
</g>
</g>
<!-- Node1&#45;&gt;Node6 -->
<g id="edge5" class="edge">
<title>Node1&#45;&gt;Node6</title>
<path fill="none" stroke="black" d="M80.02,-98.1C98.39,-81.71 127.34,-57.55 155.5,-41 160.67,-37.96 166.29,-35.1 171.94,-32.49"/>
<polygon fill="black" stroke="black" points="77.85,-95.35 72.79,-104.66 82.55,-100.53 77.85,-95.35"/>
</g>
</g>
</svg>
