<?xml version="1.0" encoding="UTF-8" standalone="no"?>
<!DOCTYPE svg PUBLIC "-//W3C//DTD SVG 1.1//EN"
 "http://www.w3.org/Graphics/SVG/1.1/DTD/svg11.dtd">
<!-- Generated by graphviz version 13.1.0 (20250701.0955)
 -->
<!-- Title: ws2812b_basic_init Pages: 1 -->
<svg width="291pt" height="266pt"
 viewBox="0.00 0.00 291.00 266.00" xmlns="http://www.w3.org/2000/svg" xmlns:xlink="http://www.w3.org/1999/xlink">
<g id="graph0" class="graph" transform="scale(1 1) rotate(0) translate(4 262)">
<title>ws2812b_basic_init</title>
<!-- Node1 -->
<g id="Node000001" class="node">
<title>Node1</title>
<g id="a_Node000001"><a xlink:title="basic example init">
<polygon fill="#999999" stroke="#666666" points="101.5,-148 0,-148 0,-128 101.5,-128 101.5,-148"/>
<text xml:space="preserve" text-anchor="middle" x="50.75" y="-134.5" font-family="Helvetica,sans-Serif" font-size="10.00">ws2812b_basic_init</text>
</a>
</g>
</g>
<!-- Node2 -->
<g id="Node000002" class="node">
<title>Node2</title>
<g id="a_Node000002"><a xlink:href="group__ws2812b__base__driver.html#gae6fbb749585737a343245f99a12541ee" target="_top" xlink:title="initialize the chip">
<polygon fill="white" stroke="#666666" points="246.5,-258 173.5,-258 173.5,-238 246.5,-238 246.5,-258"/>
<text xml:space="preserve" text-anchor="middle" x="210" y="-244.5" font-family="Helvetica,sans-Serif" font-size="10.00">ws2812b_init</text>
</a>
</g>
</g>
<!-- Node1&#45;&gt;Node2 -->
<g id="edge1_Node000001_Node000002" class="edge">
<title>Node1&#45;&gt;Node2</title>
<g id="a_edge1_Node000001_Node000002"><a xlink:title=" ">
<path fill="none" stroke="#63b8ff" d="M58.44,-148.22C71.36,-167.14 101.7,-207.66 137.5,-229 145.1,-233.53 153.79,-237 162.43,-239.65"/>
<polygon fill="#63b8ff" stroke="#63b8ff" points="161.24,-242.95 171.81,-242.19 163.07,-236.19 161.24,-242.95"/>
</a>
</g>
</g>
<!-- Node3 -->
<g id="Node000003" class="node">
<title>Node3</title>
<g id="a_Node000003"><a xlink:href="group__ws2812b__interface__driver.html#ga06272a71df762b39a7a55770ed0784d1" target="_top" xlink:title="interface print format data">
<polygon fill="white" stroke="#666666" points="274.62,-220 145.38,-220 145.38,-188 274.62,-188 274.62,-220"/>
<text xml:space="preserve" text-anchor="start" x="153.38" y="-206.5" font-family="Helvetica,sans-Serif" font-size="10.00">ws2812b_interface_debug</text>
<text xml:space="preserve" text-anchor="middle" x="210" y="-194.5" font-family="Helvetica,sans-Serif" font-size="10.00">_print</text>
</a>
</g>
</g>
<!-- Node1&#45;&gt;Node3 -->
<g id="edge2_Node000001_Node000003" class="edge">
<title>Node1&#45;&gt;Node3</title>
<g id="a_edge2_Node000001_Node000003"><a xlink:title=" ">
<path fill="none" stroke="#63b8ff" d="M71.91,-148.41C89.11,-157.11 114.62,-169.56 137.5,-179 141.31,-180.57 145.26,-182.13 149.26,-183.66"/>
<polygon fill="#63b8ff" stroke="#63b8ff" points="147.87,-186.88 158.47,-187.1 150.32,-180.32 147.87,-186.88"/>
</a>
</g>
</g>
<!-- Node4 -->
<g id="Node000004" class="node">
<title>Node4</title>
<g id="a_Node000004"><a xlink:href="group__ws2812b__interface__driver.html#gafbc8bb115b98f6821e9abcecc8df4e94" target="_top" xlink:title="interface delay ms">
<polygon fill="white" stroke="#666666" points="282.5,-170 137.5,-170 137.5,-150 282.5,-150 282.5,-170"/>
<text xml:space="preserve" text-anchor="middle" x="210" y="-156.5" font-family="Helvetica,sans-Serif" font-size="10.00">ws2812b_interface_delay_ms</text>
</a>
</g>
</g>
<!-- Node1&#45;&gt;Node4 -->
<g id="edge3_Node000001_Node000004" class="edge">
<title>Node1&#45;&gt;Node4</title>
<g id="a_edge3_Node000001_Node000004"><a xlink:title=" ">
<path fill="none" stroke="#63b8ff" d="M101.94,-145.02C109.66,-146.1 117.81,-147.24 126.02,-148.39"/>
<polygon fill="#63b8ff" stroke="#63b8ff" points="125.34,-151.83 135.72,-149.75 126.31,-144.9 125.34,-151.83"/>
</a>
</g>
</g>
<!-- Node5 -->
<g id="Node000005" class="node">
<title>Node5</title>
<g id="a_Node000005"><a xlink:href="group__ws2812b__interface__driver.html#ga6ae146c64fb745f2d0d2b6c8ac1ac39e" target="_top" xlink:title="interface spi 10mhz bus init">
<polygon fill="white" stroke="#666666" points="267.88,-132 152.12,-132 152.12,-100 267.88,-100 267.88,-132"/>
<text xml:space="preserve" text-anchor="start" x="160.12" y="-118.5" font-family="Helvetica,sans-Serif" font-size="10.00">ws2812b_interface_spi</text>
<text xml:space="preserve" text-anchor="middle" x="210" y="-106.5" font-family="Helvetica,sans-Serif" font-size="10.00">_10mhz_init</text>
</a>
</g>
</g>
<!-- Node1&#45;&gt;Node5 -->
<g id="edge4_Node000001_Node000005" class="edge">
<title>Node1&#45;&gt;Node5</title>
<g id="a_edge4_Node000001_Node000005"><a xlink:title=" ">
<path fill="none" stroke="#63b8ff" d="M101.94,-130.98C114.17,-129.27 127.47,-127.41 140.4,-125.6"/>
<polygon fill="#63b8ff" stroke="#63b8ff" points="140.71,-129.09 150.13,-124.24 139.74,-122.16 140.71,-129.09"/>
</a>
</g>
</g>
<!-- Node6 -->
<g id="Node000006" class="node">
<title>Node6</title>
<g id="a_Node000006"><a xlink:href="group__ws2812b__interface__driver.html#gada66d175cfd4373710ce36097b93cc06" target="_top" xlink:title="interface spi bus deinit">
<polygon fill="white" stroke="#666666" points="267.88,-82 152.12,-82 152.12,-50 267.88,-50 267.88,-82"/>
<text xml:space="preserve" text-anchor="start" x="160.12" y="-68.5" font-family="Helvetica,sans-Serif" font-size="10.00">ws2812b_interface_spi</text>
<text xml:space="preserve" text-anchor="middle" x="210" y="-56.5" font-family="Helvetica,sans-Serif" font-size="10.00">_deinit</text>
</a>
</g>
</g>
<!-- Node1&#45;&gt;Node6 -->
<g id="edge5_Node000001_Node000006" class="edge">
<title>Node1&#45;&gt;Node6</title>
<g id="a_edge5_Node000001_Node000006"><a xlink:title=" ">
<path fill="none" stroke="#63b8ff" d="M68.73,-127.6C85.73,-117.45 112.84,-101.98 137.5,-91 140.86,-89.5 144.35,-88.03 147.88,-86.6"/>
<polygon fill="#63b8ff" stroke="#63b8ff" points="149.12,-89.88 157.17,-83 146.59,-83.35 149.12,-89.88"/>
</a>
</g>
</g>
<!-- Node7 -->
<g id="Node000007" class="node">
<title>Node7</title>
<g id="a_Node000007"><a xlink:href="group__ws2812b__interface__driver.html#ga4a5339883cb90bc06763b2cd5d0c97fc" target="_top" xlink:title="interface spi bus write command">
<polygon fill="white" stroke="#666666" points="267.88,-32 152.12,-32 152.12,0 267.88,0 267.88,-32"/>
<text xml:space="preserve" text-anchor="start" x="160.12" y="-18.5" font-family="Helvetica,sans-Serif" font-size="10.00">ws2812b_interface_spi</text>
<text xml:space="preserve" text-anchor="middle" x="210" y="-6.5" font-family="Helvetica,sans-Serif" font-size="10.00">_write_cmd</text>
</a>
</g>
</g>
<!-- Node1&#45;&gt;Node7 -->
<g id="edge6_Node000001_Node000007" class="edge">
<title>Node1&#45;&gt;Node7</title>
<g id="a_edge6_Node000001_Node000007"><a xlink:title=" ">
<path fill="none" stroke="#63b8ff" d="M58.23,-127.66C71.04,-108.04 101.49,-65.19 137.5,-41 139.3,-39.79 141.17,-38.63 143.08,-37.52"/>
<polygon fill="#63b8ff" stroke="#63b8ff" points="144.37,-40.8 151.65,-33.09 141.16,-34.58 144.37,-40.8"/>
</a>
</g>
</g>
</g>
</svg>
